<?xml version="1.0" encoding="utf-8"?>
<!-- Generator: Adobe Illustrator 26.3.1, SVG Export Plug-In . SVG Version: 6.00 Build 0)  -->
<svg version="1.1" id="Layer_1" xmlns="http://www.w3.org/2000/svg" xmlns:xlink="http://www.w3.org/1999/xlink" x="0px" y="0px"
	 width="300px" height="300px" viewBox="0 0 300 300" style="enable-background:new 0 0 300 300;" xml:space="preserve">
<style type="text/css">
	.st0{fill:#F79869;}
	.st1{fill:#FFFFFF;}
	.st2{fill:#CAA0CA;}
	.st3{fill:#E57C90;}
</style>
<g>
	<path class="st0" d="M135.9,93.4c-0.5-0.2-1-0.3-1.5-0.4c0-0.1,0-0.2-0.1-0.3c0-0.1,0-0.2-0.1-0.3c0.4-0.3,0.8-0.6,1.2-1
		c5.8-5.5,6-14.6,0.6-20.3c-5.5-5.8-14.6-6-20.3-0.6c-0.4,0.4-0.7,0.7-1.1,1.1c-0.1,0-0.2-0.1-0.3-0.1c-0.1,0-0.2-0.1-0.3-0.1
		c-0.1-0.5-0.2-1-0.3-1.5c-1.8-7.7-9.6-12.5-17.3-10.7c-7.7,1.8-12.5,9.6-10.7,17.3c0.1,0.5,0.3,1,0.4,1.5c-0.1,0.1-0.1,0.1-0.2,0.2
		c-0.1,0.1-0.1,0.1-0.2,0.2c-0.5-0.2-1-0.4-1.5-0.5c-7.6-2.3-15.6,2.1-17.9,9.7c-2.3,7.6,2.1,15.6,9.7,17.9c0.5,0.2,1,0.3,1.5,0.4
		c0,0.1,0,0.2,0.1,0.3c0,0.1,0,0.2,0.1,0.3c-0.4,0.3-0.8,0.6-1.2,1c-5.8,5.5-6,14.6-0.6,20.3c5.5,5.8,14.6,6,20.3,0.6
		c0.4-0.4,0.7-0.7,1.1-1.1c0.1,0,0.2,0.1,0.3,0.1c0.1,0,0.2,0.1,0.3,0.1c0.1,0.5,0.2,1,0.3,1.5c1.8,7.7,9.6,12.5,17.3,10.7
		c7.7-1.8,12.5-9.6,10.7-17.3c-0.1-0.5-0.3-1-0.4-1.5c0.1-0.1,0.1-0.1,0.2-0.2c0.1-0.1,0.2-0.1,0.2-0.2c0.5,0.2,1,0.4,1.5,0.5
		c7.6,2.3,15.6-2.1,17.9-9.7C147.9,103.6,143.5,95.6,135.9,93.4"/>
	<path class="st1" d="M114.3,108.2c-4.9,4.6-12.5,4.4-17.1-0.5c-4.6-4.9-4.4-12.5,0.5-17.1c4.9-4.6,12.5-4.4,17.1,0.5
		C119.4,96,119.1,103.6,114.3,108.2"/>
</g>
<g>
	<path class="st2" d="M237,122.6c-0.5-0.2-1-0.3-1.5-0.4c0-0.1,0-0.2-0.1-0.3c0-0.1,0-0.2-0.1-0.3c0.4-0.3,0.8-0.6,1.2-1
		c5.8-5.5,6-14.6,0.6-20.3c-5.5-5.8-14.6-6-20.3-0.6c-0.4,0.4-0.7,0.7-1.1,1.1c-0.1,0-0.2-0.1-0.3-0.1c-0.1,0-0.2-0.1-0.3-0.1
		c-0.1-0.5-0.2-1-0.3-1.5c-1.8-7.7-9.6-12.5-17.3-10.7c-7.7,1.8-12.5,9.6-10.7,17.3c0.1,0.5,0.3,1,0.4,1.5c-0.1,0.1-0.1,0.1-0.2,0.2
		c-0.1,0.1-0.1,0.1-0.2,0.2c-0.5-0.2-1-0.4-1.5-0.5c-7.6-2.3-15.6,2.1-17.9,9.7c-2.3,7.6,2.1,15.6,9.7,17.9c0.5,0.2,1,0.3,1.5,0.4
		c0,0.1,0,0.2,0.1,0.3c0,0.1,0,0.2,0.1,0.3c-0.4,0.3-0.8,0.6-1.2,1c-5.8,5.5-6,14.6-0.6,20.3c5.5,5.8,14.6,6,20.3,0.6
		c0.4-0.4,0.7-0.7,1.1-1.1c0.1,0,0.2,0.1,0.3,0.1c0.1,0,0.2,0.1,0.3,0.1c0.1,0.5,0.2,1,0.3,1.5c1.8,7.7,9.6,12.5,17.3,10.7
		c7.7-1.8,12.5-9.6,10.7-17.3c-0.1-0.5-0.3-1-0.4-1.5c0.1-0.1,0.1-0.1,0.2-0.2c0.1-0.1,0.2-0.1,0.2-0.2c0.5,0.2,1,0.4,1.5,0.5
		c7.6,2.3,15.6-2.1,17.9-9.7C249,132.9,244.7,124.9,237,122.6"/>
	<path class="st1" d="M215.4,137.5c-4.9,4.6-12.5,4.4-17.1-0.5c-4.6-4.9-4.4-12.5,0.5-17.1c4.9-4.6,12.5-4.4,17.1,0.5
		C220.5,125.3,220.3,132.9,215.4,137.5"/>
</g>
<g>
	<path class="st3" d="M149.8,194.7c-0.5-0.2-1-0.3-1.5-0.4c0-0.1,0-0.2-0.1-0.3c0-0.1,0-0.2-0.1-0.3c0.4-0.3,0.8-0.6,1.2-1
		c5.8-5.5,6-14.6,0.6-20.3c-5.5-5.8-14.6-6-20.3-0.6c-0.4,0.4-0.7,0.7-1.1,1.1c-0.1,0-0.2-0.1-0.3-0.1c-0.1,0-0.2-0.1-0.3-0.1
		c-0.1-0.5-0.2-1-0.3-1.5c-1.8-7.7-9.6-12.5-17.3-10.7c-7.7,1.8-12.5,9.6-10.7,17.3c0.1,0.5,0.3,1,0.4,1.5c-0.1,0.1-0.1,0.1-0.2,0.2
		c-0.1,0.1-0.1,0.1-0.2,0.2c-0.5-0.2-1-0.4-1.5-0.5c-7.6-2.3-15.6,2.1-17.9,9.7c-2.3,7.6,2.1,15.6,9.7,17.9c0.5,0.2,1,0.3,1.5,0.4
		c0,0.1,0,0.2,0.1,0.3c0,0.1,0,0.2,0.1,0.3c-0.4,0.3-0.8,0.6-1.2,1c-5.8,5.5-6,14.6-0.6,20.3c5.5,5.8,14.6,6,20.3,0.6
		c0.4-0.4,0.7-0.7,1.1-1.1c0.1,0,0.2,0.1,0.3,0.1c0.1,0,0.2,0.1,0.3,0.1c0.1,0.5,0.2,1,0.3,1.5c1.8,7.7,9.6,12.5,17.3,10.7
		c7.7-1.8,12.5-9.6,10.7-17.3c-0.1-0.5-0.3-1-0.4-1.5c0.1-0.1,0.1-0.1,0.2-0.2c0.1-0.1,0.2-0.1,0.2-0.2c0.5,0.2,1,0.4,1.5,0.5
		c7.6,2.3,15.6-2.1,17.9-9.7C161.8,205,157.4,197,149.8,194.7"/>
	<path class="st1" d="M128.2,209.6c-4.9,4.6-12.5,4.4-17.1-0.5c-4.6-4.9-4.4-12.5,0.5-17.1c4.9-4.6,12.5-4.4,17.1,0.5
		C133.2,197.3,133,205,128.2,209.6"/>
</g>
</svg>
